<svg id="Capa_1" data-name="Capa 1" xmlns="http://www.w3.org/2000/svg" viewBox="0 0 452.56 447.07"><defs><style>.cls-1{fill:#fff;}</style></defs><g id="DXCYs7.tif"><path class="cls-1" d="M267.47,334.11c0-16.06.2-32.12-.06-48.18-.14-7.41,2.8-10.21,10.25-10.65,9.22-.53,20.6,4.43,27.19-3.16,5.7-6.55,3.88-17.41,5.48-26.35,2.89-16.22,2.8-16.09-13.85-16.26-34-.35-28.59,4.25-28.94-28.95-.22-20.24,7.56-28.33,27.87-29.93,4-.3,8-.26,12-.26,5.36,0,8.1-2.54,8.06-8,0-4.73.06-9.48.06-14.24,0-17.37-.57-18-18.44-19-4.74-.27-9.49-.33-14.22-.37-43.65-.4-65.28,20.26-66.92,64.11-.33,8.74-.35,17.52,0,26.27.26,7.6-3.22,10.56-10.5,10.36s-14.59.13-21.89,0c-6.24-.11-9.57,2.26-9.42,9,.2,9.49.16,19,0,28.46-.08,6.09,2.9,8.5,8.72,8.44,7.67-.11,15.34.17,23,0,6.72-.13,10.08,2.48,10,9.62q-.22,48.71,0,97.44c0,8.5-3.8,9.37-11.09,7.93C140.89,377.8,85.33,318.25,77,253.06,65,158.45,126.37,77.38,220.63,63.47c86.63-12.8,172.28,51.29,185.56,138.83,13,86-41.35,167.72-124.76,187.37-13,3.07-13.85,2.5-13.92-10.73C267.41,364,267.45,349.07,267.47,334.11Z"/></g></svg>