<svg id="Capa_1" data-name="Capa 1" xmlns="http://www.w3.org/2000/svg" viewBox="0 0 452.56 447.07"><defs><style>.cls-1{fill:#fff;}</style></defs><g id="_2NabvU" data-name="2NabvU"><path class="cls-1" d="M222.4,372.32H168.87c-4.61,0-7.22-2.65-7.18-7.29.15-19.59,16.68-36,36.21-36,5.61,0,5.61,0,5.61-5.63,0-10.05,0-20.09,0-30.14,0-1.62-.39-2.36-2.07-2.82q-50.43-13.56-65.19-63.69A73,73,0,0,1,133.43,206c0-14.51,0-29.05,0-43.56,0-1.92-.49-2.5-2.42-2.42-3.68.15-7.37.06-11.05,0-3.45,0-5.25-1.49-5.28-4.34,0-3.06,1.83-4.76,5.39-4.76,13.59,0,27.18-.06,40.76.06,2.23,0,2.73-.58,2.71-2.75-.09-14.23,0-28.47-.06-42.69,0-28,20.73-52.68,48.33-57.43,33.5-5.76,64.21,16.55,68.94,50.11a48.15,48.15,0,0,1,.44,6.68c0,14.59.06,29.18,0,43.77,0,1.82.5,2.29,2.3,2.27,13.73-.08,27.47,0,41.19,0,3.21,0,5.13,1.49,5.36,4.12.25,2.94-1.55,4.94-4.65,5-4,.05-8,.09-11.92,0-1.78-.06-2.16.58-2.16,2.22.05,14.46.17,28.9,0,43.35-.28,22-8,41.23-22.49,57.64a86.55,86.55,0,0,1-45.56,27.25c-1.55.37-2.05,1-2.05,2.63.08,11.26.08,22.55,0,33.81,0,1.74.52,2.25,2.2,2.13a35.88,35.88,0,0,1,26.69,8.69c8.3,7.1,12.52,16.26,12.95,27.13.19,4.86-2.5,7.49-7.41,7.49C258,372.32,240.16,372.32,222.4,372.32Zm35.72-172.94c4.05,0,8.09-.08,12.14,0,1.57,0,1.95-.5,1.93-2-.06-6.43-.11-12.85,0-19.3,0-1.95-.54-2.42-2.44-2.4-7.72.1-15.46,0-23.18,0-2.05,0-3.7-.66-4.53-2.65-1.39-3.39.81-6.43,4.78-6.45,7.66,0,15.31-.07,23,0,2,0,2.42-.58,2.38-2.44-.11-6.29-.09-12.58,0-18.85,0-1.74-.5-2.2-2.2-2.18q-11.6.1-23.19,0c-3.1,0-5.2-2-5.2-4.65s2-4.43,5.26-4.43c7.59,0,15.17-.06,22.76,0,1.86,0,2.65-.33,2.59-2.48-.15-6.29-.13-12.58,0-18.85,0-2-.52-2.42-2.42-2.4-7.87.1-15.75,0-23.63,0a4.11,4.11,0,0,1-4.31-3.21,4.35,4.35,0,0,1,1.72-5,6,6,0,0,1,3.93-.93c7.51,0,15,0,22.54,0,1.61,0,2-.48,1.73-2a48.56,48.56,0,0,0-14.54-28.86C244.85,58.72,230,54.21,213.05,57.17c-20.4,3.56-37.47,21.6-40,42.1-.22,1.8.29,2.18,2,2.16,7.66-.07,15.31-.05,23,0,3.08,0,5.19,2,5.19,4.65s-2,4.43-5.25,4.45c-7.72,0-15.46.06-23.18,0-1.76,0-2.19.54-2.15,2.23.1,6.34.12,12.71,0,19.08,0,1.9.46,2.46,2.4,2.44,7.88-.12,15.75,0,23.63,0a4.14,4.14,0,0,1,4.32,3.23,4.3,4.3,0,0,1-1.71,5,6,6,0,0,1-3.93.92c-7.58,0-15.17,0-22.76,0-1.31,0-2,.23-1.93,1.78.08,6.63.06,13.29,0,19.93,0,1.37.48,1.76,1.76,1.7,2.17-.07,4.34,0,6.5,0,5.71,0,11.42,0,17.13,0,2.25,0,4,.82,4.84,2.94,1.28,3.2-.83,6.14-4.45,6.16-7.8.06-15.6.08-23.42,0-2,0-2.42.58-2.38,2.46q.18,9.53,0,19.06c0,1.78.56,2.17,2.23,2.15,7.79-.08,15.59,0,23.41,0,1.8,0,3.27.46,4.22,2.07,2,3.37-.25,7-4.49,7.05-7.43.05-14.88,0-22.33,0-3,0-2.94,0-2.44,3a49.34,49.34,0,0,0,15.48,28.82c10.68,9.83,23.36,14.26,37.74,13.1C241.79,252.21,254,245,263,232.55a50,50,0,0,0,8.75-21.69c.31-2-.26-2.52-2.21-2.4-2.67.17-5.34,0-8,0-5,0-10,0-15,0a4.78,4.78,0,0,1-5-4.65c0-2.59,2.05-4.43,5.07-4.45Zm-115.57-13.2V205.9a68,68,0,0,0,2.51,18.18c6.31,22.75,19.82,39.79,40.76,50.82a76.55,76.55,0,0,0,41.84,8.74c21.25-1.5,39.21-10.16,53.67-25.83,12.27-13.32,19.58-29.11,20.59-47.11.91-16.27.27-32.65.35-49,0-1.36-.51-1.7-1.78-1.7-5.79.05-11.56.07-17.34,0-1.57,0-1.94.52-1.94,2,.06,6.08.08,12.13,0,18.21-.12,9.68.48,19.37-.27,29a56,56,0,0,1-18.64,38,58.8,58.8,0,0,1-84.63-5,56.18,56.18,0,0,1-14.13-37.06c-.17-14.31-.06-28.63,0-42.93,0-1.61-.29-2.3-2.11-2.26q-8.44.16-16.91,0c-1.68,0-2.05.54-2,2.1C142.58,170.14,142.55,178.15,142.55,186.18Zm79.77,177.2h13.43c12.06,0,24.11,0,36.17,0,1.47,0,2.07-.27,1.74-2a28.78,28.78,0,0,0-2.32-7.41c-5.48-10.87-14.55-16.1-26.55-16.12-15.89,0-31.76-.33-47.65.19-12.64.41-23.86,10.42-26,23-.31,1.87.1,2.32,2,2.32Q197.73,363.31,222.32,363.38Zm-9.7-52.78c0,5.56,0,11.11,0,16.69,0,1.27.37,1.78,1.73,1.76q8.13-.09,16.23,0c1.18,0,1.69-.33,1.69-1.59q-.06-16.66,0-33.35c0-1.21-.35-1.6-1.63-1.49a84.1,84.1,0,0,1-16.18,0c-1.51-.15-1.84.39-1.82,1.77C212.66,299.77,212.62,305.18,212.62,310.6Z"/></g></svg>