<svg id="Capa_1" data-name="Capa 1" xmlns="http://www.w3.org/2000/svg" viewBox="0 0 452.56 447.07"><defs><style>.cls-1{fill:#fff;}</style></defs><g id="GlD8dY"><path class="cls-1" d="M297.47,178.05a6.71,6.71,0,0,0,4.87,8.32,6.74,6.74,0,0,0,3.14-13.11c-2.65-.67-3.76-2-3.27-4s2.26-2.75,4.9-2.08a13,13,0,0,1,1.63,24.72A13.16,13.16,0,0,1,294,188.25,13,13,0,0,1,292.79,173a1.65,1.65,0,0,0,.06-2,46.87,46.87,0,0,1-5.13-13.41,1.18,1.18,0,0,0-1.38-1.09c-14.83,0-29.64.1-44.46,0a19.53,19.53,0,0,0-14.63,6.1q-29.75,29.9-59.64,59.67C153.41,236.53,139.15,250.68,125,265a17.18,17.18,0,0,0,0,24.09c6.23,6.46,12.66,12.73,19,19.07l4.84,4.82q22.71,22.72,45.45,45.44a17.6,17.6,0,0,0,24.92-.25q25.94-26,51.9-51.92L311.31,266c3.54-3.54,7.13-7.07,10.66-10.64a17.35,17.35,0,0,0,5.09-12.56c0-22.89,0-45.79,0-68.67A17.42,17.42,0,0,0,310,156.64c-3.77-.14-7.55,0-11.33-.07-2.1,0-3.41-1.23-3.44-3a2.93,2.93,0,0,1,2.75-3.16c5.41,0,10.83-.55,16.2.42a23.72,23.72,0,0,1,19.15,22.42c.15,7.39,0,14.77,0,22.16,0,15.42-.08,30.85,0,46.26a25.76,25.76,0,0,1-8,19.36q-29.62,29.42-59.07,59l-42.61,42.63a23.92,23.92,0,0,1-34.12,0q-19.89-19.92-39.81-39.79-14.46-14.46-28.91-28.93a23.79,23.79,0,0,1-.22-33.36c12.39-12.56,25-25,37.44-37.44q18-18,36-36,14.83-14.86,29.7-29.69a23.31,23.31,0,0,1,16.89-7.05q22.17-.07,44.31,0c1.26,0,1.66-.22,1.6-1.59a49.55,49.55,0,0,1,10.31-33.38c8.56-11.19,19.91-18.07,33.93-19.67,20.9-2.38,37.85,5.14,49.4,22.69,19.63,29.83,3.36,69.36-31.06,77.52A46.24,46.24,0,0,1,339,197.15c-2.11,0-3.51-1.16-3.58-3s1.31-3.09,3.41-3.22c19-1.3,32.64-10.6,40.1-28.16,4.78-11.27,4.45-22.82-.32-34.1a44.79,44.79,0,0,0-45.2-27.1c-20.6,1.74-37.83,18.17-40.33,38.72-1.81,14.87,2.77,27.58,13.35,38.16,1.54,1.55,1.73,3.44.43,4.77s-3.14,1.28-4.78-.25A52.32,52.32,0,0,1,297.47,178.05Z"/><path class="cls-1" d="M206.64,370.6h0A24.86,24.86,0,0,1,189,363.19q-13-13-26-26L149.15,323.4q-14.46-14.46-28.92-28.93a24.57,24.57,0,0,1-.22-34.54c8.3-8.39,16.79-16.86,25-25.05q6.22-6.19,12.43-12.39,9.94-9.94,19.86-19.9l18.07-18.08q13.85-13.86,27.73-27.7a24.07,24.07,0,0,1,17.5-7.29c13.35-.05,27.42,0,44.31,0a3.14,3.14,0,0,0,.74-.07h0a3.41,3.41,0,0,0,0-.65,50.56,50.56,0,0,1,10.48-33.92c8.95-11.67,20.55-18.4,34.51-20,21.3-2.44,38.66,5.54,50.18,23a50.89,50.89,0,0,1,4.94,47.35,52.27,52.27,0,0,1-36.5,31.47A47.94,47.94,0,0,1,339,198.09c-2.56,0-4.34-1.49-4.41-3.84s1.61-3.91,4.2-4.1c18.87-1.28,32.13-10.58,39.39-27.65,4.6-10.82,4.48-22.07-.32-33.45a43.92,43.92,0,0,0-44.36-26.58c-20.13,1.7-37.14,18-39.56,38-1.39,11.52,1.14,21.88,7.54,30.91a3.9,3.9,0,0,1-.1-2.3,3.69,3.69,0,0,1,1.66-2.37,5.5,5.5,0,0,1,4.25-.31,13.87,13.87,0,1,1-15.25,6.19c.32-.5.3-.67.05-1.09a47.92,47.92,0,0,1-5.24-13.65c-.08-.42-.11-.44-.55-.44l-5.37,0c-12.81,0-26.06.07-39.09,0h-.12a18.72,18.72,0,0,0-13.88,5.84q-21,21.13-42.15,42.2l-28.86,28.83c-10.26,10.22-20.85,20.82-31.2,31.29a16.34,16.34,0,0,0,0,22.94c4.33,4.52,8.86,9,13.23,13.33l5.76,5.73,18.28,18.28q16,16,32,32a16.8,16.8,0,0,0,23.72-.25l33.64-33.65,58.49-58.51,4-4c2.23-2.22,4.45-4.42,6.67-6.67a16.48,16.48,0,0,0,4.85-12V232.7q0-29.3,0-58.6A16.53,16.53,0,0,0,310,157.46c-2.28-.08-4.61-.07-6.86-.05-1.48,0-3,0-4.45,0-2.52,0-4.23-1.58-4.27-3.86a4.23,4.23,0,0,1,1.16-3,3.37,3.37,0,0,1,2.44-1h0c1.42,0,2.85,0,4.28-.08a56.54,56.54,0,0,1,12,.52,24.51,24.51,0,0,1,19.83,23.22c.1,5.19.08,10.46.07,15.57,0,2.2,0,4.41,0,6.61,0,4.6,0,9.22,0,13.82,0,10.63,0,21.63.05,32.44a26.57,26.57,0,0,1-8.29,20Q303,284.36,280.19,307.25l-13.31,13.31q-21.3,21.32-42.61,42.63A24.71,24.71,0,0,1,206.64,370.6Zm53.71-219.44c-6.9,0-13.4,0-19.75,0a22.39,22.39,0,0,0-16.3,6.8q-13.87,13.83-27.72,27.7l-18.07,18.08q-9.91,10-19.86,19.9-6.19,6.19-12.43,12.39c-8.21,8.18-16.7,16.64-25,25a22.9,22.9,0,0,0,.22,32.17l28.91,28.93L164.21,336q13,13,25.95,26a23.15,23.15,0,0,0,16.49,6.92h0A23.13,23.13,0,0,0,223.09,362q21.3-21.33,42.61-42.63L279,306.09q22.85-22.84,45.75-45.65a25,25,0,0,0,7.79-18.76c-.08-10.81-.06-21.81-.05-32.46,0-4.6,0-9.2,0-13.81,0-2.2,0-4.42,0-6.62,0-5.09.05-10.36-.07-15.53A22.81,22.81,0,0,0,314,151.65a57.07,57.07,0,0,0-11.67-.49c-1.46,0-2.84.09-4.37.09h0a1.71,1.71,0,0,0-1.24.52,2.44,2.44,0,0,0-.67,1.78c0,1.36,1,2.2,2.6,2.21s2.94,0,4.42,0c2.26,0,4.61,0,6.93.07a18.18,18.18,0,0,1,17.87,18.32q.09,29.29.05,58.6v10.09A18.15,18.15,0,0,1,322.61,256c-2.2,2.23-4.45,4.45-6.69,6.66-1.32,1.33-2.67,2.64-4,4l-58.5,58.52q-16.83,16.81-33.63,33.65a18.51,18.51,0,0,1-26.11.25q-16-15.94-32-32l-18.28-18.29-5.74-5.72c-4.38-4.35-8.9-8.83-13.27-13.37a18,18,0,0,1,0-25.27c10.36-10.49,21-21.07,31.22-31.31l28.86-28.83q21.11-21.08,42.14-42.19a20.36,20.36,0,0,1,15.08-6.33h.14c13,.06,26.26,0,39.07,0l5.37,0h0a2,2,0,0,1,2.18,1.76,46.06,46.06,0,0,0,5.06,13.17,2.51,2.51,0,0,1-.09,2.82,12.16,12.16,0,1,0,13.4-5.48,4,4,0,0,0-3,.14,2.05,2.05,0,0,0-.91,1.32c-.25,1-.17,2.27,2.67,3a7.58,7.58,0,0,1-3.54,14.75,7.24,7.24,0,0,1-4.57-3.23,8.06,8.06,0,0,1-.95-6.11l.37-1.63,1.07,1.26a57.28,57.28,0,0,0,4.6,4.95c.62.57,2.2,1.75,3.61.29,1.16-1.19.54-2.64-.42-3.59-10.83-10.83-15.41-23.91-13.58-38.87,2.52-20.72,20.18-37.7,41.08-39.46a45.61,45.61,0,0,1,46,27.6c5,11.81,5.11,23.49.32,34.76-7.52,17.7-21.26,27.33-40.82,28.66-1.66.12-2.67,1-2.62,2.37s1.06,2.26,2.72,2.21a46.4,46.4,0,0,0,9.89-1.27,49.89,49.89,0,0,0,35.33-30.44,49.29,49.29,0,0,0-4.78-45.81c-11.32-17.19-27.66-24.7-48.61-22.31-13.49,1.53-24.72,8-33.36,19.34a48.78,48.78,0,0,0-10.13,32.83,2.44,2.44,0,0,1-.5,1.89,2.56,2.56,0,0,1-1.93.57C276.05,151.18,268,151.16,260.35,151.16Zm37.76,28.92a5.9,5.9,0,0,0,.91,3,5.51,5.51,0,0,0,3.51,2.47,5.9,5.9,0,0,0,2.77-11.47,6.8,6.8,0,0,1-2.74-1.27,52.21,52.21,0,0,0,4.52,5.13c1.88,1.88,2.06,4.29.45,6s-4,1.62-6-.21C300.34,182.54,299.22,181.34,298.11,180.08Z"/></g></svg>