<svg id="Capa_1" data-name="Capa 1" xmlns="http://www.w3.org/2000/svg" viewBox="0 0 452.56 447.07"><defs><style>.cls-1{fill:#fff;}</style></defs><g id="J1JxtE.tif"><path class="cls-1" d="M276.21,123.55h22.07c12.1,3.45,23.88,7.65,33.1,16.71,3.21,3.14,6.35,3.65,10.51,2.52a156,156,0,0,0,29.57-11.22c1.42-.7,3.05-2.66,4.58-1.05,1.35,1.42-.16,3.25-.8,4.76a61.51,61.51,0,0,1-14,20c-2.51,2.44-4.89,5-8.15,8.35,12.6-1,22.91-5.45,33.48-8.9V156c-8.91,11.16-18.27,21.89-29.61,30.71-2.7,2.11-2.85,5.18-2.78,8.27a142.58,142.58,0,0,1-2.49,30.32c-15.35,78.45-58.86,132.05-137.13,154.8-10,2.91-20.38,3.63-30.52,5.69H146.39c-1.67-.38-3.34-.88-5-1.11A189.63,189.63,0,0,1,72.8,362c-2.3-1.29-5.08-2.16-6.82-6a133.88,133.88,0,0,0,48.74-4.32c15.92-4.36,30.65-11.13,43.66-21.4-.49-.75-.57-1-.71-1.07-2.74-.59-5.49-1.09-8.21-1.7-22.15-5-38-17.79-47.69-38.32-2.24-4.75-1.59-6.66,4.1-6.26,6.41.49,12.89.59,19.12-1.47a59.29,59.29,0,0,0-7.32-3.29c-23.83-10.63-37.85-28.73-41.32-54.69-.88-6.57.35-7.38,6.5-5s12.45,4.68,19.59,4.48c-1.09-3.27-3.77-4.58-5.69-6.48C76.68,196.7,71,168.4,82.08,142.48c3-7.1,3.29-7.12,8.76-1.33,7.7,8.19,15.59,16.17,24.47,23.15,28.08,22.09,59.93,35,95.31,39.26,7.91.95,11.52,1.57,10.11-9.64-1.67-13.4,2-26.19,9-37.85C240.34,138.32,256.42,128.27,276.21,123.55Z"/></g></svg>