<svg id="Capa_1" data-name="Capa 1" xmlns="http://www.w3.org/2000/svg" viewBox="0 0 452.56 447.07"><defs><style>.cls-1{fill:#fff;}</style></defs><g id="GbZcgZ"><path class="cls-1" d="M241.2,366.1H130.66c-19.09,0-31.34-12.28-31.34-31.3q0-101.43,0-202.88c0-19.07,12.23-31.23,31.4-31.25,8.92,0,17.84-.1,26.79.07,2.64.05,3.45-.78,3.21-3.31a40.23,40.23,0,0,1,0-5.49c.37-10,8.13-17.74,17.74-17.82,9.86-.07,17.75,7.65,18.19,17.77,0,.47,0,.91,0,1.37,0,7.38,0,7.41,7.25,7.38,27.36,0,54.71-.07,82.06.07,3.28,0,4.14-1,3.9-4a31.33,31.33,0,0,1,.17-6.84c1.25-9.43,9.48-16.3,18.6-15.68a18.12,18.12,0,0,1,17.11,17.74v.69c.07,8.06.07,7.94,8.31,8.09,8.45.12,17-.91,25.36.54a28.69,28.69,0,0,1,24.12,28.72q.07,103.35,0,206.69c0,16.76-12.84,29.46-29.7,29.48Q297.48,366.15,241.2,366.1Zm.22-196q-64.36,0-128.72-.08c-3.11,0-4,.76-4,3.95q.15,80.66.08,161.32c0,13.14,8.23,21.4,21.42,21.4q111.21,0,222.42,0c13.19,0,21.42-8.24,21.42-21.4q0-80.65.08-161.32c0-3.19-.89-3.95-4-3.95C327.23,170.13,284.34,170.08,241.42,170.08Zm.05-9.44q64.53,0,129,.07c2.82,0,3.68-.71,3.63-3.6-.2-9,0-18.06-.1-27.11-.07-11.25-8.5-19.68-19.78-19.85-6.39-.1-12.82-.07-19.21,0-2.94,0-6.72-1.22-8.63.54s-.44,5.61-.66,8.55c0,.47,0,.91,0,1.38-.25,10.34-8,18.16-18,18.21-9.71.07-17.55-7.8-17.89-18a77.1,77.1,0,0,1,0-7.9c.15-2.32-.78-2.89-3-2.84-7.43.12-14.88,0-22.31,0-21.52,0-43,.05-64.53,0-2.65,0-3.7.63-3.46,3.4a54.34,54.34,0,0,1,0,7.55,18.06,18.06,0,0,1-18.09,17.8c-9.75,0-17.6-7.94-17.84-18.07-.05-2.52-.12-5.05.05-7.55.17-2.35-.59-3.16-3-3.13-9.73.12-19.46,0-29.17.1-11.25.12-19.63,8.65-19.7,19.9,0,8.8.19,17.62-.13,26.42-.14,3.7,1.16,4.21,4.42,4.21Q177.26,160.57,241.47,160.64Zm57.75-54.17c0,4.59-.05,9.15,0,13.73.07,5.37,3.75,9.24,8.6,9.17s8.38-3.93,8.41-9.37q.08-13.53,0-27.1c0-5.4-3.58-9.27-8.43-9.37s-8.51,3.83-8.58,9.19C299.17,97.33,299.22,101.92,299.22,106.47ZM170.1,106.3c0,4.59,0,9.14,0,13.73.1,5.56,3.83,9.51,8.78,9.36s8.23-4,8.26-9.51q.08-13.38,0-26.74c0-5.64-3.65-9.58-8.58-9.51s-8.36,3.9-8.46,9.34C170.05,97.38,170.1,101.84,170.1,106.3Z"/><path class="cls-1" d="M246.81,261.57c0-5.25,0-10.52,0-15.76,0-3.82,1.59-5.47,5.42-5.49q15.74-.1,31.49,0c4.14,0,5.74,1.74,5.76,5.93,0,10.3,0,20.56,0,30.86,0,4.41-1.59,6-6,6q-15.43.08-30.86,0c-4.19,0-5.81-1.64-5.86-5.79C246.79,272.08,246.81,266.84,246.81,261.57Zm33.24.15c0-3.19-.05-6.4,0-9.59.05-1.66-.44-2.47-2.3-2.45-6.4.08-12.77.08-19.17,0-1.79,0-2.35.66-2.33,2.4.08,6.4.08,12.77,0,19.17,0,1.72.45,2.48,2.31,2.45,6.4-.07,12.77-.07,19.16,0,1.84,0,2.38-.68,2.33-2.4C280,268.09,280.05,264.9,280.05,261.72Z"/><path class="cls-1" d="M236.05,261.67c0,5.24,0,10.51,0,15.76-.05,4-1.67,5.66-5.61,5.68q-15.78.08-31.55,0c-3.79,0-5.51-1.71-5.54-5.41-.07-10.64,0-21.25,0-31.89,0-3.7,1.79-5.44,5.49-5.47,10.62,0,21.21-.07,31.82,0,3.7,0,5.34,1.76,5.39,5.56.07,5.27,0,10.54,0,15.79Zm-9.51,0h0c0-3.09-.1-6.15,0-9.24.1-2.06-.58-2.8-2.69-2.77-6.15.12-12.31.1-18.48,0-1.82,0-2.7.41-2.65,2.45.1,6.37.07,12.77,0,19.17,0,1.71.51,2.42,2.32,2.4,6.4-.08,12.77-.08,19.17,0,1.86,0,2.33-.76,2.3-2.45C226.5,268,226.54,264.85,226.54,261.67Z"/><path class="cls-1" d="M268,335c-5.15,0-10.3.05-15.42,0-4.24-.05-5.71-1.52-5.71-5.83q-.08-15.58,0-31.2c0-4.05,1.59-5.66,5.56-5.69q15.78-.08,31.55,0c4,0,5.56,1.64,5.58,5.69q0,15.58,0,31.2c0,4.24-1.56,5.78-5.76,5.83C278.48,335,273.21,335,268,335Zm12.08-21.3c0-3.09-.1-6.17.05-9.26.1-2.06-.54-2.8-2.7-2.75-6.17.12-12.35.12-18.5,0-2.21-.05-2.67.81-2.65,2.8.1,6.17.1,12.35,0,18.5,0,1.94.56,2.62,2.5,2.6,6.27-.07,12.57-.1,18.85,0,2,0,2.55-.79,2.47-2.65C280,319.83,280.05,316.74,280.05,313.65Z"/><path class="cls-1" d="M246.81,209.68c0-5.27,0-10.54,0-15.78,0-3.82,1.62-5.39,5.49-5.42,10.54,0,21,0,31.59,0,3.9,0,5.59,1.6,5.59,5.32q.08,16-.05,31.91c0,3.8-1.62,5.37-5.47,5.39-10.63.08-21.27.05-31.91,0-3.55,0-5.17-1.76-5.19-5.31,0-5.37,0-10.76,0-16.13Zm33.29.4h-.05c0-3.31-.05-6.62,0-9.93,0-1.57-.46-2.26-2.13-2.23q-9.78.08-19.56,0c-1.39,0-2.11.42-2.11,1.94.05,6.64.05,13.25,0,19.9,0,1.37.34,2,2,2,6.52-.1,13-.08,19.56,0,1.74,0,2.45-.54,2.35-2.4C280,216.25,280.1,213.16,280.1,210.08Z"/><path class="cls-1" d="M214.88,292.21c5.15,0,10.29,0,15.41,0,4.2,0,5.74,1.59,5.76,5.83q.07,15.58,0,31.2c0,4.09-1.54,5.66-5.53,5.69q-15.78.06-31.52,0c-4,0-5.59-1.65-5.62-5.64q-.07-15.78,0-31.52c0-3.92,1.69-5.49,5.74-5.51C204.36,292.18,209.61,292.21,214.88,292.21Zm-12.06,21.17c0,3.31.05,6.64,0,9.95-.05,1.65.61,2.21,2.2,2.21q9.78-.07,19.54,0c1.69,0,2.1-.74,2.08-2.31q-.12-9.59,0-19.19c0-1.76-.59-2.37-2.38-2.35-6.4.07-12.79.1-19.19,0-1.91,0-2.3.81-2.25,2.48C202.87,307.21,202.82,310.29,202.82,313.38Z"/><path class="cls-1" d="M236.05,209.81c0,5.24,0,10.51,0,15.76-.05,3.89-1.59,5.56-5.32,5.56q-15.92.08-31.84,0c-4,0-5.49-1.62-5.49-5.66,0-10.27,0-20.57,0-30.83,0-4.61,1.52-6.11,6.21-6.11,10.17,0,20.31,0,30.49,0,4.48,0,5.95,1.45,6,5.93C236.08,199.54,236.05,204.68,236.05,209.81Zm-9.43,0c0-3.09-.1-6.18,0-9.24.1-2.16-.76-2.72-2.8-2.7q-9.23.15-18.48,0c-1.88,0-2.62.52-2.59,2.5q.13,9.42,0,18.83c0,2,.71,2.52,2.57,2.5,6.15-.08,12.33-.1,18.48,0,2,0,2.89-.54,2.79-2.67C226.5,216,226.62,212.89,226.62,209.83Z"/><path class="cls-1" d="M139.88,261.4c0-5,0-10.08,0-15.1,0-4.07,1.42-5.81,5.44-5.88,10.74-.17,21.5-.17,32.23-.1,3.38,0,5.07,1.79,5.1,5.2q.1,16.14,0,32.25c0,3.73-1.78,5.29-5.66,5.32-10.41.05-20.83.07-31.22,0-4.12,0-5.76-1.77-5.81-5.93-.07-5.22,0-10.49-.05-15.76Zm21.18,12.28c3.18,0,6.39-.08,9.58,0,1.81.05,2.7-.39,2.67-2.45-.1-6.4-.07-12.77,0-19.17,0-1.74-.56-2.42-2.38-2.4-6.39.08-12.77,0-19.16,0-1.69,0-2.48.42-2.45,2.28.09,6.5.09,13,0,19.51,0,1.94.88,2.26,2.5,2.21C154.9,273.6,158,273.65,161.06,273.68Z"/><path class="cls-1" d="M343,261.72c0,5.24.05,10.51,0,15.76-.05,3.75-1.69,5.58-5.39,5.63-10.74.1-21.47.08-32.21,0-3.33,0-5.07-1.76-5.1-5.14-.09-10.86-.12-21.72,0-32.55,0-3.38,1.72-5,5.2-5,10.73-.07,21.44-.09,32.18,0,3.77,0,5.32,1.77,5.36,5.59C343,251.2,343,256.47,343,261.72Zm-9.46-.05h0c0-3.19-.05-6.4.05-9.59.05-1.74-.51-2.42-2.33-2.4q-9.59.12-19.16,0c-1.69,0-2.5.44-2.48,2.31.08,6.49.05,13,0,19.51,0,1.56.54,2.23,2.18,2.2,6.5-.07,13-.1,19.51,0,1.89,0,2.31-.78,2.26-2.45C333.45,268,333.5,264.85,333.5,261.67Z"/><path class="cls-1" d="M343,209.83c0,5.15,0,10.29,0,15.42,0,4.26-1.59,5.88-5.71,5.88q-15.74,0-31.49-.07c-3.95,0-5.44-1.52-5.47-5.35q-.07-15.59-.07-31.17c0-4.64,1.54-6.08,6.23-6.08,10.17,0,20.34,0,30.51,0,4.44,0,6,1.54,6,5.93C343,199.56,343,204.68,343,209.83Zm-21.54,11.86h0c3.21,0,6.4,0,9.61,0,1.59,0,2.55-.25,2.52-2.21-.1-6.52-.07-13,0-19.56,0-1.47-.54-2-2-2-6.64.05-13.26,0-19.9,0-1.42,0-2.06.56-2,2,0,6.52.05,13,0,19.56,0,1.64.64,2.21,2.23,2.18C315,221.62,318.23,221.69,321.42,221.69Z"/><path class="cls-1" d="M161.45,231.15H145.66c-3.92,0-5.58-1.37-5.63-5.24q-.22-16.29-.1-32.6c0-3.11,1.86-4.8,5-4.83q16.29,0,32.6,0c3.16,0,5,1.69,5,4.86.07,11,.12,22,0,32.94,0,3.28-2,4.85-5.76,4.87-5.12,0-10.27,0-15.39,0Zm-12.08-21.52c0,3.21.09,6.4-.05,9.61-.1,2,.73,2.53,2.59,2.5q9.27-.15,18.53,0c2,0,2.92-.37,2.87-2.62-.12-6.18-.1-12.35,0-18.53,0-1.84-.49-2.7-2.5-2.67-6.4.1-12.82.1-19.21,0-1.89,0-2.33.78-2.28,2.47C149.41,203.46,149.34,206.55,149.37,209.63Z"/><path class="cls-1" d="M343,314c0,5.15.05,10.27,0,15.42,0,3.75-1.69,5.51-5.41,5.51q-16.11.11-32.21,0c-3.4,0-5.07-1.67-5.1-5.1-.07-10.85-.09-21.71,0-32.54,0-3.36,1.77-5,5.2-5q16.11-.08,32.21,0c3.55,0,5.22,1.71,5.29,5.29C343,303,343,308.48,343,314Zm-9.46-.12c0-3.31-.05-6.64,0-10,0-1.57-.42-2.26-2.11-2.23q-9.78.1-19.56,0c-1.86,0-2.3.78-2.3,2.47.05,6.4.07,12.8,0,19.22,0,1.64.59,2.2,2.18,2.2,6.52-.05,13-.09,19.56,0,1.93,0,2.3-.79,2.25-2.45C333.45,320,333.5,316.94,333.5,313.85Z"/><path class="cls-1" d="M139.9,313.5c0-5.14,0-10.26,0-15.41,0-4.22,1.62-5.86,5.76-5.86q15.6-.08,31.18,0c4.19,0,5.78,1.59,5.81,5.83q.07,15.6,0,31.18c0,4.17-1.62,5.71-5.91,5.71q-15.41,0-30.83,0c-4.39,0-6-1.62-6-6C139.86,323.8,139.9,318.65,139.9,313.5Zm33.36.35c0-3.31,0-6.64,0-10,0-1.62-.57-2.23-2.21-2.21q-9.78.07-19.56,0c-1.59,0-2.2.51-2.2,2.15q.1,9.78,0,19.56c0,1.62.46,2.18,2.13,2.18q9.78-.1,19.56,0c1.83,0,2.35-.71,2.28-2.45C173.19,320,173.26,316.94,173.26,313.85Z"/></g></svg>