<svg id="Capa_1" data-name="Capa 1" xmlns="http://www.w3.org/2000/svg" viewBox="0 0 452.56 447.07"><defs><style>.cls-1{fill:#fff;}</style></defs><g id="gkrbKu.tif"><path class="cls-1" d="M207.86,82.1H226a24.94,24.94,0,0,0,3.17.7,112,112,0,0,1,95.46,80.84c2,7,2.73,14.16,4.14,21.23v18.92a31.19,31.19,0,0,0-.7,3.54,147.68,147.68,0,0,1-8.73,38.31c-11.76,32-31.56,58.62-55.43,82.51A338,338,0,0,1,219.37,365h-4.94a4.55,4.55,0,0,0-.77-.86,294.08,294.08,0,0,1-69.22-64.94c-16.83-22-29.61-46-35.7-73.2-1.57-7-2.46-14.21-3.67-21.33V184.91c.26-1.31.64-2.61.77-3.92,4.44-43.13,36.78-81.84,78.39-94C192,84.67,200,83.58,207.86,82.1Zm-89.6,116.07c.17,14.83,3.95,32.69,11.28,49.71C147.76,290.19,178.46,322,214.85,349c1.91,1.42,3.09.79,4.64-.34a287.15,287.15,0,0,0,23.64-19.1c25.81-23.25,47.74-49.45,61.23-81.85,9.76-23.46,14.33-47.8,9.3-73.05A98.55,98.55,0,0,0,204.33,96.07C156.17,102.22,118.06,143.52,118.26,198.17Z"/><path class="cls-1" d="M216.81,142.77a43.67,43.67,0,1,1-43.55,43.62A43.5,43.5,0,0,1,216.81,142.77Zm.14,13.15a30.5,30.5,0,1,0,30.48,30.49A30.31,30.31,0,0,0,217,155.92Z"/></g></svg>