<svg id="Capa_1" data-name="Capa 1" xmlns="http://www.w3.org/2000/svg" viewBox="0 0 452.56 447.07"><defs><style>.cls-1{fill:#fff;}</style></defs><g id="FjosTb.tif"><path class="cls-1" d="M225.65,332.38h-27a3.3,3.3,0,0,0-1.28-.14c-11.54-.21-23.09-.35-34.63-.69-14.68-.44-29.34-1-44-2.22-7.57-.64-15.15-1.2-22.56-2.88C80.91,323,71,313.67,66.81,298.52c-2.74-10-3.57-20.4-4.43-30.73S61.05,247,60.87,236.61a12.75,12.75,0,0,0-.21-2.68v-14.8c.05-.54.15-1.07.17-1.63.26-13.07.88-26.12,2.19-39.15.79-8.06,1.63-16.12,3.81-23.95,4-14.34,13.23-23.71,27.67-27.61,7.11-1.92,14.5-2.36,21.83-3,10.8-.93,21.65-1.43,32.47-1.86,16.83-.66,33.67-1,50.49-1.16,20-.21,40,.12,60,.68,15.22.42,30.45,1,45.63,2.26,7.6.64,15.21,1.24,22.68,2.88,14.3,3.16,23.95,11.7,28.76,25.55a80,80,0,0,1,3.26,15.59c.79,5.74,1.73,11.46,1.73,17.26.05,24.19,0,48.38,0,72.57a157.66,157.66,0,0,1-.65,18.3c-.89,7.6-1.65,15.27-3.65,22.68-3.94,14.56-13.25,23.91-27.89,27.75-6.18,1.63-12.57,2.12-18.91,2.7-11.9,1.09-23.81,1.69-35.75,2.12-14.92.56-29.81.92-44.75,1A27.82,27.82,0,0,0,225.65,332.38Zm34.94-105.8c-.56-.34-.92-.58-1.28-.8q-21.57-12.39-43.12-24.8l-33.34-19.19c-1.1-.63-1.1-.62-1.12.62v88c0,1.6,0,1.6,1.43.79q33.19-19.09,66.4-38.21C253.18,230.85,256.79,228.76,260.59,226.58Z"/></g></svg>