<svg id="Capa_1" data-name="Capa 1" xmlns="http://www.w3.org/2000/svg" xmlns:xlink="http://www.w3.org/1999/xlink" viewBox="0 0 491 192"><defs><style>.cls-1{fill:none;}.cls-2{clip-path:url(#clip-path);}.cls-3{opacity:0.31;}.cls-4{clip-path:url(#clip-path-2);}.cls-5{fill:#e4e5e6;}.cls-6{fill:#cfd1d2;}.cls-7{font-size:19.93px;font-family:Gotham-Medium, Gotham;font-weight:500;}.cls-11,.cls-7{fill:#fff;}.cls-8{letter-spacing:-0.04em;}.cls-9{letter-spacing:-0.03em;}.cls-10{letter-spacing:0em;}</style><clipPath id="clip-path"><rect class="cls-1" x="-1832.15" y="171.9" width="1629.85" height="895.1" transform="translate(-2034.45 1238.9) rotate(-180)"/></clipPath><clipPath id="clip-path-2"><rect class="cls-1" x="-1927.38" y="15.72" width="1629.47" height="699.59" transform="translate(-2225.3 731.02) rotate(-180)"/></clipPath></defs><g class="cls-2"><g class="cls-3"><g class="cls-4"><path class="cls-5" d="M29.63,302.37l-.09.12L-211.31,174.7l119.09-26.34L30.78,301l-1.15,1.33-.06.14ZM-205.73,175.46l232,123.07L-93,150.52Z"/><path class="cls-5" d="M29.57,302.51-94.54,148.62l173-13.48,1.43-.11L31,301.9,30.63,303ZM-90.69,150.28,29.6,299.55,77.23,137.2Z"/><polygon class="cls-5" points="227.63 130.27 227.63 132.21 82.26 136.97 224.88 212.68 227.63 169.81 227.63 200.71 226.76 214.32 225.75 214.28 225.29 215.11 74.9 135.26 227.63 130.27"/><polygon class="cls-5" points="227.63 169.81 227.63 200.71 226.9 212.17 227.63 211.61 227.63 214.07 224.64 216.33 227.63 169.81"/><path class="cls-5" d="M-129.28,109,28.93-53.35,79.61,136.14l-.36,1.06Zm4.1-1.4L77.25,135,27.92-49.49Z"/><path class="cls-5" d="M-129.61,107,78.71,135.16l-.06,1.94L-93,150.45Zm4.76,2.6,32.67,38.82L69.41,135.88Z"/><path class="cls-5" d="M78.54,136.12l-.92.25L27-52.94,136.27-15.65,79.5,136.46Zm-48.68-186L78.73,132.88l55-147.34Z"/><polygon class="cls-5" points="227.63 127.64 135.24 -12.89 80 135.11 227.63 130.27 227.63 132.21 77.14 137.14 134.75 -17.22 227.63 124.05 227.63 127.64"/><polygon class="cls-5" points="227.63 -55.41 227.63 -53.29 137.28 -14.97 227.63 31.54 227.63 33.74 132.71 -15.14 227.63 -55.41"/><polygon class="cls-5" points="227.63 31.54 227.63 33.74 137.86 -12.48 227.63 124.05 227.63 127.64 132.13 -17.62 227.63 31.54"/><path class="cls-5" d="M-62.49-165.48,29.73-51.36-129,111.56Zm1,4.35-63.93,266.2L27.11-51.48Z"/><path class="cls-5" d="M69.51,130.72a10.69,10.69,0,0,1,19.36,2.94,10.19,10.19,0,0,1-1.24,7.87,10.68,10.68,0,0,1-19.36-2.94A10.27,10.27,0,0,1,69.51,130.72Z"/><path class="cls-6" d="M227.63,120.39v21.47a11.19,11.19,0,0,1,0-21.47Z"/></g></g></g><text class="cls-7" transform="translate(204.09 98.26) scale(1.09 1)">P<tspan class="cls-8" x="13.31" y="0">O</tspan><tspan x="29.5" y="0">WERED </tspan><tspan class="cls-9" x="114.43" y="0">B</tspan><tspan class="cls-10" x="128.22" y="0">Y</tspan></text><g id="Shape"><path class="cls-11" d="M141.11,154.12,126.74,122l.05-29.81,28.29,9L181.29,125,170,151.64Zm-12.37-32.57L142.36,152l26.26-2.26,10.27-24.27L154.06,103,128.79,94.9Z"/></g><rect class="cls-11" x="147.56" y="110.25" width="2" height="51.09" transform="translate(-48.4 177.2) rotate(-54.3)"/><rect class="cls-11" x="160.56" y="100.82" width="2" height="51.09" transform="translate(-30.73 54.99) rotate(-17.67)"/><g id="Shape-2" data-name="Shape"><path class="cls-11" d="M99.32,103.11l-.21,0L62.43,98.56,56.14,69.28,51.6,45.85,79.84,49.3l31.64,18.84,17.86,25.7ZM64.09,96.75l35.05,4.33,27-8.34-16-23.1L79.18,51.24,54.09,48.17l4,20.71Z"/></g><rect class="cls-11" x="77.6" y="58.41" width="2" height="53.99" transform="translate(-36.96 96.28) rotate(-52.75)"/><polygon class="cls-11" points="111.08 70.64 57.11 70.06 57.06 68.64 57.11 67.73 77.87 49.75 79.18 51.26 59.75 68.09 111.1 68.64 111.08 70.64"/><g id="Shape-3" data-name="Shape"><polygon class="cls-11" points="114.22 154.12 85.35 151.64 74.06 124.96 100.26 101.21 127.25 92.58 127.86 94.48 101.28 102.98 76.45 125.48 86.72 149.75 112.98 152.01 126.69 121.35 128.52 122.17 114.22 154.12"/></g><rect class="cls-11" x="81.24" y="134.79" width="51.09" height="2" transform="translate(-59.17 87.83) rotate(-35.7)"/><rect class="cls-11" x="68.24" y="125.37" width="51.09" height="2" transform="translate(-55.07 177.41) rotate(-72.34)"/><g id="Shape-4" data-name="Shape"><path class="cls-11" d="M156.28,103.11l-30-9.27,17.86-25.7L175.76,49.3,204,45.85l-4.53,23.41-6.3,29.3ZM129.46,92.74l27,8.34,35.06-4.33,6-27.89,4-20.69-25.1,3.07-30.9,18.4Z"/></g><rect class="cls-11" x="150.01" y="84.41" width="53.99" height="2" transform="translate(-15.58 124.6) rotate(-37.26)"/><polygon class="cls-11" points="144.52 70.64 144.5 68.64 195.85 68.09 176.42 51.26 177.73 49.75 198.71 67.92 198.28 70.06 198.28 70.06 144.52 70.64"/><path class="cls-11" d="M242.82,146.88V111.67h.66c4.33,0,8.66,0,13,0a21.87,21.87,0,0,1,8.09,1.38,14.41,14.41,0,0,1,8.93,9.92,21.71,21.71,0,0,1-.86,15,14,14,0,0,1-8.74,7.81,21.61,21.61,0,0,1-7,1.1c-4.55,0-9.11,0-13.67,0Zm6.76-6c.81,0,1.59,0,2.36,0,2.52-.07,5.07,0,7.56-.27a8.27,8.27,0,0,0,7.33-6.06,17.77,17.77,0,0,0,.31-9.24,8.71,8.71,0,0,0-8-7.34c-2.13-.21-4.28-.14-6.41-.18-1,0-2.05,0-3.11,0Z"/><path class="cls-11" d="M354.26,147.1a5.8,5.8,0,0,1-1.11-.61q-11.23-10.11-22.44-20.23a3.41,3.41,0,0,0-.3-.23v20.84h-6.67V111.49a5.3,5.3,0,0,1,1.13.62q11.06,10.14,22.08,20.32l.61.52V111.72h6.7Z"/><path class="cls-11" d="M230.78,146.86V141H211.65v-8.83h17v-6h-17v-8.52h19.11v-6H205v35.16Z"/><path class="cls-11" d="M312,117.64H292.84v8.77h17v6h-17v8.52H312v6H286.14V111.71H312Z"/><path class="cls-11" d="M419.53,146.91c-2.36,0-4.62,0-6.87,0a.9.9,0,0,1-.64-.44c-.77-1.49-1.51-3-2.24-4.52a.84.84,0,0,0-.87-.57q-7.73,0-15.45,0a.84.84,0,0,0-.87.57q-1.06,2.28-2.21,4.53c-.09.19-.32.43-.49.43-2.3,0-4.6,0-7,0,.1-.25.17-.43.26-.61q8.69-17,17.39-34c.13-.27.44-.6.66-.6s.5.36.64.62q8.67,16.93,17.32,33.87C419.3,146.4,419.38,146.61,419.53,146.91Zm-23.35-11.45h10l-5-10.59C399.5,128.46,397.86,131.92,396.18,135.46Z"/><path class="cls-11" d="M366.67,119.55h6.62v27.31h-6.62Z"/><path class="cls-11" d="M366.67,111.7h6.62v6.13h-6.62Z"/><path class="cls-11" d="M423.57,146.15a2.8,2.8,0,0,1,1.48.4,2.78,2.78,0,0,1,1,1,2.8,2.8,0,0,1,.4,1.48,2.86,2.86,0,0,1-.1.77,2.67,2.67,0,0,1-.3.69,2.56,2.56,0,0,1-.45.59,3.23,3.23,0,0,1-.59.46,3.33,3.33,0,0,1-.7.29,2.79,2.79,0,0,1-1.55,0,3,3,0,0,1-.69-.29,3,3,0,0,1-1.05-1.05,3,3,0,0,1-.29-.69,2.81,2.81,0,0,1-.11-.77,2.88,2.88,0,0,1,.11-.78,3.33,3.33,0,0,1,.29-.7,3.23,3.23,0,0,1,.46-.59,2.56,2.56,0,0,1,.59-.45,2.67,2.67,0,0,1,.69-.3A2.86,2.86,0,0,1,423.57,146.15Zm0,5.36a2.32,2.32,0,0,0,.65-.09,2.38,2.38,0,0,0,.57-.24,2.57,2.57,0,0,0,.49-.38,2.52,2.52,0,0,0,.37-.49,3,3,0,0,0,.24-.59,2.32,2.32,0,0,0,.09-.65,2.39,2.39,0,0,0-.09-.66,2.81,2.81,0,0,0-.24-.59,2.32,2.32,0,0,0-.37-.5,2.22,2.22,0,0,0-.49-.38,2.41,2.41,0,0,0-.57-.25,2.36,2.36,0,0,0-1.29,0,2.18,2.18,0,0,0-.56.25,2,2,0,0,0-.48.38,2.52,2.52,0,0,0-.61,1.09,2.39,2.39,0,0,0-.08.66,2.56,2.56,0,0,0,.18,1,2.49,2.49,0,0,0,.5.77,2.34,2.34,0,0,0,.76.52A2.24,2.24,0,0,0,423.57,151.51Zm0-4.23a1.75,1.75,0,0,1,1.08.27.9.9,0,0,1,.34.76,1,1,0,0,1-.18.61,1,1,0,0,1-.56.38.66.66,0,0,1,.15.14.78.78,0,0,1,.11.18l.72,1.21h-.81a.27.27,0,0,1-.25-.13l-.57-1a.38.38,0,0,0-.09-.09.28.28,0,0,0-.15,0h-.21v1.29h-.85v-3.55Zm-.08,1.66a1.58,1.58,0,0,0,.34,0,.75.75,0,0,0,.2-.1.37.37,0,0,0,.1-.17.8.8,0,0,0,0-.23.66.66,0,0,0,0-.21.24.24,0,0,0-.09-.15.32.32,0,0,0-.18-.1,1.12,1.12,0,0,0-.29,0h-.42v1Z"/></svg>