<svg id="Capa_1" data-name="Capa 1" xmlns="http://www.w3.org/2000/svg" viewBox="0 0 993 844"><defs><style>.cls-1{fill:#fff;}.cls-2{fill:red;}</style></defs><path class="cls-1" d="M254.91,169.61H201.24V315.45H167.66V169.61H120.83V139.87H254.91Z"/><path class="cls-1" d="M302.88,315.46H269.3V140.12h33.58Z"/><path class="cls-1" d="M249.4,381.36a33.59,33.59,0,0,1-2.16,11.31,43.2,43.2,0,0,1-5.88,11.07,35,35,0,0,1-9,8.53A22,22,0,0,1,220.85,416a33.71,33.71,0,0,1,12.83,3.71,39.6,39.6,0,0,1,11.39,8.73,47.45,47.45,0,0,1,8.27,12.68,36.77,36.77,0,0,1,3.24,15.31q0,14.35-4.32,24.28a41.92,41.92,0,0,1-11.75,16,45.37,45.37,0,0,1-17.39,8.73,82.55,82.55,0,0,1-21.23,2.63H120.81V332.52h77.24a93.3,93.3,0,0,1,19.91,2A40,40,0,0,1,234.27,342a36.77,36.77,0,0,1,11,14.92Q249.38,366.45,249.4,381.36Zm-95,22.65h41.26a18.7,18.7,0,0,0,8.75-1.93,19.1,19.1,0,0,0,6.24-5.07,22.67,22.67,0,0,0,3.84-7.12,24.76,24.76,0,0,0,1.32-7.84,20.06,20.06,0,0,0-1.44-7.48,20.56,20.56,0,0,0-3.84-6.28A20,20,0,0,0,204.9,364a14.55,14.55,0,0,0-6.84-1.69H154.41Zm47.5,74.35a17.17,17.17,0,0,0,8.16-2,22.17,22.17,0,0,0,6.72-5.52,28.52,28.52,0,0,0,4.56-7.68,22.71,22.71,0,0,0,1.68-8.51,19.26,19.26,0,0,0-6.6-14.87q-6.6-6-18.11-6h-43.9v44.62Z"/><path class="cls-1" d="M335.05,478.36V508.1H269.2V332.52h33.58V478.36Z"/><path class="cls-1" d="M481.21,524.4V700H447.63v-69.8H361V700H327.46V524.4H361v76h86.59v-76Z"/><path class="cls-1" d="M492.33,700,582,524.64h3.36L675.11,700H638.65L625,672.39H542.22L528.79,700Zm66.21-56.85h50.13l-24.95-53Z"/><path class="cls-1" d="M722.11,700H688.53V524.64h33.58Z"/><path class="cls-1" d="M458.73,241.06a59.72,59.72,0,0,1-11.51,17.82,55.85,55.85,0,0,1-16.92,12.26,49.29,49.29,0,0,1-41.15,0,56,56,0,0,1-16.92-12.26,59.79,59.79,0,0,1-11.51-17.82,54.84,54.84,0,0,1,0-42.17,57.86,57.86,0,0,1,11.48-17.78,56.84,56.84,0,0,1,16.94-12.17,49.16,49.16,0,0,1,41.14,0,56.67,56.67,0,0,1,16.93,12.17,57.63,57.63,0,0,1,11.48,17.77A53.84,53.84,0,0,1,461.86,210h42.48a91.53,91.53,0,0,0-6.91-27.11,95.85,95.85,0,0,0-50.65-50.78,95.36,95.36,0,0,0-74.14,0A95.94,95.94,0,0,0,322,182.86a95.11,95.11,0,0,0,0,74.25,96.38,96.38,0,0,0,50.65,50.65,94.9,94.9,0,0,0,74.14,0,96.38,96.38,0,0,0,50.65-50.65,90.18,90.18,0,0,0,6.68-25.2H461.48A50.46,50.46,0,0,1,458.73,241.06Z"/><path class="cls-1" d="M675.89,436.22a59.55,59.55,0,0,1-11.46,17.84,55.8,55.8,0,0,1-16.88,12.3,49.29,49.29,0,0,1-41.15.1,55.81,55.81,0,0,1-16.95-12.22,59.66,59.66,0,0,1-11.56-17.79,54.85,54.85,0,0,1-.11-42.17,57.84,57.84,0,0,1,11.44-17.81,57,57,0,0,1,16.91-12.21,49.12,49.12,0,0,1,41.14-.11,56.51,56.51,0,0,1,17,12.13A57.8,57.8,0,0,1,675.76,394,53.84,53.84,0,0,1,679,405.1l42.48-.11a91.73,91.73,0,0,0-7-27.09,95.91,95.91,0,0,0-50.78-50.66,95.37,95.37,0,0,0-74.14.19A96,96,0,0,0,539,378.35a95.09,95.09,0,0,0,.19,74.24A96.38,96.38,0,0,0,590,503.11a94.84,94.84,0,0,0,74.14-.19,96.29,96.29,0,0,0,50.52-50.78,90.31,90.31,0,0,0,6.62-25.22l-42.64.11A49.53,49.53,0,0,1,675.89,436.22Z"/><path class="cls-1" d="M266.17,627.61a59.84,59.84,0,0,1-11.29,18A55.89,55.89,0,0,1,238.12,658a49.34,49.34,0,0,1-41.14.51,56,56,0,0,1-17.07-12,59.82,59.82,0,0,1-11.73-17.67,54.86,54.86,0,0,1-.51-42.17,58.13,58.13,0,0,1,11.26-17.92,56.91,56.91,0,0,1,16.79-12.38,49.14,49.14,0,0,1,41.15-.51,56.75,56.75,0,0,1,17.08,12,57.86,57.86,0,0,1,11.7,17.63,54.34,54.34,0,0,1,3.3,11l42.48-.52a91.83,91.83,0,0,0-7.24-27,95.84,95.84,0,0,0-51.27-50.16,95.32,95.32,0,0,0-74.13.91,96,96,0,0,0-50,51.4,95.1,95.1,0,0,0,.91,74.24,96.33,96.33,0,0,0,51.27,50,94.84,94.84,0,0,0,74.13-.91,96.39,96.39,0,0,0,50-51.27,90.19,90.19,0,0,0,6.37-25.28l-42.64.52A51.38,51.38,0,0,1,266.17,627.61Z"/><path class="cls-2" d="M702,206.18a91.91,91.91,0,0,0-12-35.4,94.79,94.79,0,0,0-56-43.54,93.73,93.73,0,0,0-72.68,9.18A94.79,94.79,0,0,0,518,192.51a94,94,0,0,0,9.19,72.8,95.2,95.2,0,0,0,56,43.41,89.39,89.39,0,0,0,25.2,3.58,94.7,94.7,0,0,0,11.95-.76,91.53,91.53,0,0,0,35.53-12,95.22,95.22,0,0,0,43.41-56A91.7,91.7,0,0,0,702,206.18Zm-41.1,26.93a61,61,0,0,1-9.36,19.46A57,57,0,0,1,636,267.14a50.23,50.23,0,0,1-41.76,5.27,57.06,57.06,0,0,1-18.68-10.24,60.81,60.81,0,0,1-13.9-16.53,56,56,0,0,1-5.39-42.7,59.17,59.17,0,0,1,9.34-19.44A57.89,57.89,0,0,1,581.19,169a50.21,50.21,0,0,1,41.75-5.27,58.07,58.07,0,0,1,18.68,10.14,59,59,0,0,1,13.88,16.5,56.06,56.06,0,0,1,5.41,42.71Z"/><path class="cls-2" d="M518.63,405.13a91.91,91.91,0,0,0-12-35.4,94.79,94.79,0,0,0-56-43.54A93.73,93.73,0,0,0,378,335.37a94.79,94.79,0,0,0-43.4,56.09,94,94,0,0,0,9.19,72.8,95.2,95.2,0,0,0,56,43.41,89.39,89.39,0,0,0,25.2,3.58,94.7,94.7,0,0,0,11.95-.76,91.53,91.53,0,0,0,35.53-12,95.22,95.22,0,0,0,43.41-55.95A91.7,91.7,0,0,0,518.63,405.13ZM418.12,360.77a48.75,48.75,0,0,1,21.45,2,58.07,58.07,0,0,1,18.68,10.14,59,59,0,0,1,13.88,16.5,55.9,55.9,0,0,1,5.39,42.69,61,61,0,0,1-9.36,19.46,56.71,56.71,0,0,1-15.55,14.57,50.23,50.23,0,0,1-41.76,5.27,57.06,57.06,0,0,1-18.68-10.24,60.81,60.81,0,0,1-13.9-16.53,56,56,0,0,1-5.39-42.7,59.17,59.17,0,0,1,9.34-19.44A57.89,57.89,0,0,1,397.8,368a49.34,49.34,0,0,1,20.32-7.2Z"/><path class="cls-2" d="M925.56,266.54a48.49,48.49,0,0,0-6.33-18.69,50.05,50.05,0,0,0-29.52-23,49.48,49.48,0,0,0-38.39,4.84,50.1,50.1,0,0,0-22.89,29.58,49.64,49.64,0,0,0,4.86,38.44,50.18,50.18,0,0,0,29.5,22.89,47.34,47.34,0,0,0,13.32,1.9,49.85,49.85,0,0,0,6.31-.4,48.32,48.32,0,0,0,18.76-6.34,50.24,50.24,0,0,0,22.89-29.51A48.21,48.21,0,0,0,925.56,266.54Zm-24,13.56a29.45,29.45,0,0,1-4.55,9.47,27.45,27.45,0,0,1-7.54,7.06,24.2,24.2,0,0,1-20.06,2.53,27.49,27.49,0,0,1-9-5,29.59,29.59,0,0,1-6.76-8,27.08,27.08,0,0,1-2.6-20.67,28.77,28.77,0,0,1,4.53-9.44,28,28,0,0,1,7.56-7,24.2,24.2,0,0,1,20.06-2.53,28.06,28.06,0,0,1,9.06,4.92,28.62,28.62,0,0,1,6.74,8,27.07,27.07,0,0,1,2.61,20.67Z"/><path class="cls-2" d="M850.08,110.37h0a61.6,61.6,0,0,0-8-23.72,63.58,63.58,0,0,0-37.46-29.14,62.71,62.71,0,0,0-48.71,6.15,63.51,63.51,0,0,0-29,37.53A63,63,0,0,0,733,150,63.76,63.76,0,0,0,770.45,179a60.09,60.09,0,0,0,16.9,2.41,63.55,63.55,0,0,0,8-.51,61.52,61.52,0,0,0,23.81-8,63.74,63.74,0,0,0,29.06-37.44A61.8,61.8,0,0,0,850.08,110.37Zm-30.48,17.2h0a37.57,37.57,0,0,1-5.77,12,35.1,35.1,0,0,1-9.57,9,30.7,30.7,0,0,1-25.47,3.22,35,35,0,0,1-11.49-6.3,37.59,37.59,0,0,1-8.58-10.21A34.37,34.37,0,0,1,755.41,109a36.25,36.25,0,0,1,5.75-12,35.59,35.59,0,0,1,9.59-8.9,29.74,29.74,0,0,1,12.38-4.4,31.35,31.35,0,0,1,4-.25A29.13,29.13,0,0,1,796.21,85a35.74,35.74,0,0,1,11.5,6.24,36.49,36.49,0,0,1,8.55,10.17,34.14,34.14,0,0,1,4.28,12.75A33.3,33.3,0,0,1,819.6,127.57Z"/><rect class="cls-2" x="814.75" y="146.94" width="34.63" height="100.47" transform="translate(13.4 444.14) rotate(-30.12)"/><rect class="cls-2" x="742.09" y="166.99" width="34.63" height="160.69" transform="translate(347.97 931.87) rotate(-77.03)"/><rect class="cls-2" x="457.01" y="301.18" width="126.31" height="34.63" transform="translate(-73.18 459.75) rotate(-44.87)"/><path class="cls-1" d="M148.5,745.21a13.08,13.08,0,0,1-2.24,3,15.1,15.1,0,0,1-2.94,2.29,14.57,14.57,0,0,1-7.38,2,13.94,13.94,0,0,1-5.57-1.13,14.49,14.49,0,0,1-7.66-7.58,13.93,13.93,0,0,1,0-11,14.49,14.49,0,0,1,7.66-7.58,13.94,13.94,0,0,1,5.57-1.13,14.57,14.57,0,0,1,7.38,2,15.1,15.1,0,0,1,2.94,2.29,13.92,13.92,0,0,1,2.24,2.95l-5,2a10.7,10.7,0,0,0-1.42-1.69,9.82,9.82,0,0,0-1.8-1.39,9.35,9.35,0,0,0-2.09-.94,7.54,7.54,0,0,0-2.28-.34,8.36,8.36,0,0,0-3.55.77,9.35,9.35,0,0,0-2.86,2.05,9.87,9.87,0,0,0-1.93,3,9.16,9.16,0,0,0,0,7.12,9.82,9.82,0,0,0,1.93,3,9.52,9.52,0,0,0,2.86,2.05,8.18,8.18,0,0,0,3.55.77,7.63,7.63,0,0,0,2.28-.34,9.49,9.49,0,0,0,3.89-2.35,11.3,11.3,0,0,0,1.42-1.71Z"/><path class="cls-1" d="M166.32,752.49a13.94,13.94,0,0,1-5.57-1.13,14.49,14.49,0,0,1-7.66-7.58,14.08,14.08,0,0,1,0-11.1,14.5,14.5,0,0,1,3.09-4.54,14.67,14.67,0,0,1,4.57-3.06,14.39,14.39,0,0,1,11.18,0,14.67,14.67,0,0,1,4.57,3.06,14.5,14.5,0,0,1,3.09,4.54,14.08,14.08,0,0,1,0,11.1,14.49,14.49,0,0,1-7.66,7.58A13.85,13.85,0,0,1,166.32,752.49Zm0-23.61a8.32,8.32,0,0,0-3.54.77,9.56,9.56,0,0,0-2.88,2.05,9.67,9.67,0,0,0-1.95,3,9.16,9.16,0,0,0,0,7.12,10,10,0,0,0,1.95,3,9.62,9.62,0,0,0,2.88,2.07,8.52,8.52,0,0,0,7.08,0,9.29,9.29,0,0,0,2.88-2.07,9.91,9.91,0,0,0,2-3,9.16,9.16,0,0,0,0-7.12,9.55,9.55,0,0,0-4.83-5A8.17,8.17,0,0,0,166.34,728.88Z"/><path class="cls-1" d="M185.09,748.36l2.88-4.21a30.87,30.87,0,0,0,4.3,2.46,10.87,10.87,0,0,0,4.65,1,7.52,7.52,0,0,0,2.28-.32,5.67,5.67,0,0,0,1.67-.83,3.36,3.36,0,0,0,1-1.16,2.77,2.77,0,0,0,.34-1.3,2.07,2.07,0,0,0-.51-1.41,3.82,3.82,0,0,0-1.37-1,11.63,11.63,0,0,0-2-.64c-.77-.17-1.57-.34-2.41-.49l-1.93-.36c-.73-.14-1.49-.33-2.28-.56a13.83,13.83,0,0,1-2.31-.94,8.78,8.78,0,0,1-2-1.46,6.6,6.6,0,0,1-2-5,7.48,7.48,0,0,1,1-4,7.59,7.59,0,0,1,2.52-2.52,10.69,10.69,0,0,1,3.41-1.3,18.49,18.49,0,0,1,3.62-.38,18.19,18.19,0,0,1,3.11.23,13.67,13.67,0,0,1,2.54.66,14.08,14.08,0,0,1,2.29,1.09c.75.44,1.55,1,2.41,1.56l-3,4.13a19.4,19.4,0,0,0-3.79-2.07,10.3,10.3,0,0,0-3.83-.71,8.59,8.59,0,0,0-1.56.17,6.65,6.65,0,0,0-1.65.54,4,4,0,0,0-1.29,1,2.07,2.07,0,0,0-.51,1.41,1.81,1.81,0,0,0,.61,1.39,4.78,4.78,0,0,0,1.55.94,15.17,15.17,0,0,0,2.09.64l2.2.53c.53.13,1.16.25,1.88.38a20.59,20.59,0,0,1,2.24.53,14.69,14.69,0,0,1,2.29.9,7.84,7.84,0,0,1,2,1.45A6.79,6.79,0,0,1,207,741a8,8,0,0,1,.55,3.14,8.43,8.43,0,0,1-.76,3.72,7,7,0,0,1-2.16,2.61,10,10,0,0,1-3.34,1.56,16.36,16.36,0,0,1-4.29.53,20.46,20.46,0,0,1-3.81-.32,17,17,0,0,1-3-.86,15.58,15.58,0,0,1-2.58-1.3C186.79,749.51,186,749,185.09,748.36Z"/><path class="cls-1" d="M230.34,729.14h-7.93V752H217.1V729.14h-8v-4.66h21.2Z"/><path class="cls-1" d="M227.57,752l14.18-27.45h.53L256.46,752H250.7l-2.16-4.32H235.46L233.34,752Zm10.46-8.9H246l-3.94-8.3Z"/><path class="cls-1" d="M279.52,752h-5.31V724.49h12.61a10.56,10.56,0,0,1,3.89.69,8.64,8.64,0,0,1,3,2,8.92,8.92,0,0,1,2,3,10.05,10.05,0,0,1,.7,3.81,9.46,9.46,0,0,1-1.58,5.44,8.75,8.75,0,0,1-4.2,3.34q3.5,4.57,6.91,9.24h-6.33q-1.67-2.15-3.25-4.32t-3.18-4.43h-5.25V752Zm0-13.41h7.3a4.26,4.26,0,0,0,1.49-.28,4,4,0,0,0,1.38-.86,4.56,4.56,0,0,0,1-1.45,4.87,4.87,0,0,0,.4-2,8.18,8.18,0,0,0-.15-1.43,4.51,4.51,0,0,0-.61-1.58,3.85,3.85,0,0,0-1.29-1.28,4.13,4.13,0,0,0-2.23-.53h-7.3v9.44Z"/><path class="cls-1" d="M308.34,752H303V724.52h5.31Z"/><path class="cls-1" d="M341.34,745.21a13.08,13.08,0,0,1-2.24,3,15.1,15.1,0,0,1-2.94,2.29,14.57,14.57,0,0,1-7.38,2,13.94,13.94,0,0,1-5.57-1.13,14.49,14.49,0,0,1-7.66-7.58,13.93,13.93,0,0,1,0-11,14.49,14.49,0,0,1,7.66-7.58,13.94,13.94,0,0,1,5.57-1.13,14.57,14.57,0,0,1,7.38,2,15.1,15.1,0,0,1,2.94,2.29,13.92,13.92,0,0,1,2.24,2.95l-5,2a10.7,10.7,0,0,0-1.42-1.69,9.82,9.82,0,0,0-1.8-1.39,9.35,9.35,0,0,0-2.09-.94,7.54,7.54,0,0,0-2.28-.34,8.36,8.36,0,0,0-3.55.77,9.35,9.35,0,0,0-2.86,2.05,9.87,9.87,0,0,0-1.93,3,9.16,9.16,0,0,0,0,7.12,9.82,9.82,0,0,0,1.93,3,9.52,9.52,0,0,0,2.86,2.05,8.33,8.33,0,0,0,3.55.77,7.63,7.63,0,0,0,2.28-.34,9.49,9.49,0,0,0,3.89-2.35,11.3,11.3,0,0,0,1.42-1.71Z"/><path class="cls-1" d="M342.21,752l14.18-27.45h.53L371.1,752h-5.76l-2.16-4.32H350.1L348,752Zm10.47-8.9h7.93l-3.94-8.3Z"/><path class="cls-1" d="M376,723.33l4.4,1.88L375.34,729h-3.75Z"/><path class="cls-1" d="M385.11,748.36l2.88-4.21a30.87,30.87,0,0,0,4.3,2.46,10.87,10.87,0,0,0,4.65,1,7.52,7.52,0,0,0,2.28-.32,5.67,5.67,0,0,0,1.67-.83,3.36,3.36,0,0,0,1-1.16,2.77,2.77,0,0,0,.34-1.3,2.07,2.07,0,0,0-.51-1.41,3.82,3.82,0,0,0-1.37-1,11.63,11.63,0,0,0-2-.64c-.77-.17-1.57-.34-2.41-.49l-1.93-.36c-.73-.14-1.49-.33-2.28-.56a13.83,13.83,0,0,1-2.31-.94,8.78,8.78,0,0,1-2.05-1.46,6.6,6.6,0,0,1-2-5,7.48,7.48,0,0,1,1-4,7.59,7.59,0,0,1,2.52-2.52,10.69,10.69,0,0,1,3.41-1.3,18.49,18.49,0,0,1,3.62-.38,18.19,18.19,0,0,1,3.11.23,13.67,13.67,0,0,1,2.54.66,14.08,14.08,0,0,1,2.29,1.09c.75.44,1.55,1,2.41,1.56l-3,4.13a19.4,19.4,0,0,0-3.79-2.07,10.3,10.3,0,0,0-3.83-.71,8.59,8.59,0,0,0-1.56.17,6.65,6.65,0,0,0-1.65.54,4,4,0,0,0-1.29,1,2.07,2.07,0,0,0-.51,1.41,1.81,1.81,0,0,0,.61,1.39,4.78,4.78,0,0,0,1.55.94,15.17,15.17,0,0,0,2.09.64l2.2.53c.53.13,1.16.25,1.88.38a20.59,20.59,0,0,1,2.24.53,14.69,14.69,0,0,1,2.29.9,7.91,7.91,0,0,1,2,1.45A6.79,6.79,0,0,1,407,741a8,8,0,0,1,.55,3.14,8.43,8.43,0,0,1-.76,3.72,7,7,0,0,1-2.16,2.61,10,10,0,0,1-3.34,1.56,16.36,16.36,0,0,1-4.29.53,20.46,20.46,0,0,1-3.81-.32,17,17,0,0,1-3-.86,15.58,15.58,0,0,1-2.58-1.3C386.8,749.51,386,749,385.11,748.36Z"/><path class="cls-1" d="M454.37,745.21a13.08,13.08,0,0,1-2.24,3,15.1,15.1,0,0,1-2.94,2.29,14.57,14.57,0,0,1-7.38,2,13.94,13.94,0,0,1-5.57-1.13,14.49,14.49,0,0,1-7.66-7.58,13.93,13.93,0,0,1,0-11,14.49,14.49,0,0,1,7.66-7.58,13.94,13.94,0,0,1,5.57-1.13,14.57,14.57,0,0,1,7.38,2,15.1,15.1,0,0,1,2.94,2.29,13.92,13.92,0,0,1,2.24,2.95l-5,2a10.7,10.7,0,0,0-1.42-1.69,9.82,9.82,0,0,0-1.8-1.39,9.35,9.35,0,0,0-2.09-.94,7.54,7.54,0,0,0-2.28-.34,8.36,8.36,0,0,0-3.55.77,9.35,9.35,0,0,0-2.86,2.05,9.87,9.87,0,0,0-1.93,3,9.16,9.16,0,0,0,0,7.12,9.82,9.82,0,0,0,1.93,3,9.52,9.52,0,0,0,2.86,2.05,8.18,8.18,0,0,0,3.55.77,7.63,7.63,0,0,0,2.28-.34,9.49,9.49,0,0,0,3.89-2.35,11.3,11.3,0,0,0,1.42-1.71Z"/><path class="cls-1" d="M464.53,752h-5.31V724.49h12.61a10.56,10.56,0,0,1,3.89.69,8.64,8.64,0,0,1,3,2,8.92,8.92,0,0,1,2,3,10.05,10.05,0,0,1,.7,3.81,9.46,9.46,0,0,1-1.58,5.44,8.75,8.75,0,0,1-4.2,3.34q3.5,4.57,6.91,9.24H476.2q-1.67-2.15-3.25-4.32t-3.18-4.43h-5.25V752Zm0-13.41h7.3a4.26,4.26,0,0,0,1.49-.28,4,4,0,0,0,1.38-.86,4.56,4.56,0,0,0,1-1.45,4.87,4.87,0,0,0,.4-2,8.18,8.18,0,0,0-.15-1.43,4.51,4.51,0,0,0-.61-1.58,3.85,3.85,0,0,0-1.29-1.28,4.13,4.13,0,0,0-2.23-.53h-7.3v9.44Z"/><path class="cls-1" d="M509,724.52c-.71,1.15-1.52,2.47-2.45,3.94s-1.86,3-2.83,4.52l-2.84,4.54c-.94,1.49-1.76,2.83-2.47,4V752h-5.31v-10.4q-2.46-4.27-5.23-8.52t-5.27-8.52h6.18q1.71,2.82,3.49,5.82t3.49,5.82c.56-.88,1.14-1.81,1.74-2.82s1.21-2,1.82-3l1.8-3c.59-1,1.16-1.92,1.69-2.8Z"/><path class="cls-1" d="M525.32,724.48a9.73,9.73,0,0,1,3.85.77,9.77,9.77,0,0,1,5.24,5.18,9.41,9.41,0,0,1,.78,3.81,10.3,10.3,0,0,1-.68,3.76,8.42,8.42,0,0,1-2,3,9.27,9.27,0,0,1-3.36,2,13.69,13.69,0,0,1-4.68.73h-6.18V752H513V724.48Zm0,14.57a5,5,0,0,0,2-.39,3.76,3.76,0,0,0,1.42-1.07,4.48,4.48,0,0,0,.82-1.54,6,6,0,0,0,.27-1.8,5.31,5.31,0,0,0-.34-1.86,5,5,0,0,0-1-1.63A5,5,0,0,0,527,729.6a5.09,5.09,0,0,0-2.2-.45h-6.49v9.91h7.05Z"/><path class="cls-1" d="M558.58,729.14h-7.93V752h-5.31V729.14h-8v-4.66h21.2v4.66Z"/><path class="cls-1" d="M575.34,752.49a13.94,13.94,0,0,1-5.57-1.13,14.49,14.49,0,0,1-7.66-7.58,14.08,14.08,0,0,1,0-11.1,14.5,14.5,0,0,1,3.09-4.54,14.67,14.67,0,0,1,4.57-3.06,14.39,14.39,0,0,1,11.18,0,14.67,14.67,0,0,1,4.57,3.06,14.5,14.5,0,0,1,3.09,4.54,14.08,14.08,0,0,1,0,11.1,14.49,14.49,0,0,1-7.66,7.58A14,14,0,0,1,575.34,752.49Zm0-23.61a8.32,8.32,0,0,0-3.54.77,9.56,9.56,0,0,0-2.88,2.05,9.67,9.67,0,0,0-2,3,9.16,9.16,0,0,0,0,7.12,10,10,0,0,0,2,3,9.62,9.62,0,0,0,2.88,2.07,8.17,8.17,0,0,0,3.54.77,8.32,8.32,0,0,0,3.54-.77,9.29,9.29,0,0,0,2.88-2.07,9.91,9.91,0,0,0,2-3,9.16,9.16,0,0,0,0-7.12,9.55,9.55,0,0,0-4.83-5A8.17,8.17,0,0,0,575.36,728.88Z"/><path class="cls-1" d="M634.35,745.21a13.08,13.08,0,0,1-2.24,3,14.8,14.8,0,0,1-2.94,2.29,14.57,14.57,0,0,1-7.38,2,14,14,0,0,1-5.58-1.13,14.49,14.49,0,0,1-7.66-7.58,13.93,13.93,0,0,1,0-11,14.49,14.49,0,0,1,7.66-7.58,14,14,0,0,1,5.58-1.13,14.57,14.57,0,0,1,7.38,2,15.1,15.1,0,0,1,2.94,2.29,13.92,13.92,0,0,1,2.24,2.95l-5,2a10.7,10.7,0,0,0-1.42-1.69,9.82,9.82,0,0,0-1.8-1.39,9.35,9.35,0,0,0-2.09-.94,7.54,7.54,0,0,0-2.28-.34,8.36,8.36,0,0,0-3.55.77,9.35,9.35,0,0,0-2.86,2.05,9.87,9.87,0,0,0-1.93,3,9.16,9.16,0,0,0,0,7.12,9.82,9.82,0,0,0,1.93,3,9.52,9.52,0,0,0,2.86,2.05,8.18,8.18,0,0,0,3.55.77,7.63,7.63,0,0,0,2.28-.34,9.49,9.49,0,0,0,3.89-2.35,11.3,11.3,0,0,0,1.42-1.71Z"/><path class="cls-1" d="M652.18,752.49a13.94,13.94,0,0,1-5.57-1.13,14.49,14.49,0,0,1-7.66-7.58,14.08,14.08,0,0,1,0-11.1,14.5,14.5,0,0,1,3.09-4.54,14.67,14.67,0,0,1,4.57-3.06,14.39,14.39,0,0,1,11.18,0,14.67,14.67,0,0,1,4.57,3.06,14.5,14.5,0,0,1,3.09,4.54,14.08,14.08,0,0,1,0,11.1,14.49,14.49,0,0,1-7.66,7.58A13.92,13.92,0,0,1,652.18,752.49Zm0-23.61a8.32,8.32,0,0,0-3.54.77,9.56,9.56,0,0,0-2.88,2.05,9.67,9.67,0,0,0-1.95,3,9.16,9.16,0,0,0,0,7.12,10,10,0,0,0,1.95,3,9.62,9.62,0,0,0,2.88,2.07,8.52,8.52,0,0,0,7.08,0,9.29,9.29,0,0,0,2.88-2.07,9.91,9.91,0,0,0,2-3,9.16,9.16,0,0,0,0-7.12,9.55,9.55,0,0,0-4.83-5A8.17,8.17,0,0,0,652.2,728.88Z"/><path class="cls-1" d="M695.6,752l-18.24-16.33V752h-5.31V724.52h.57l18.24,16.59V724.52h5.31V752Z"/><path class="cls-1" d="M708.3,729.14v6.8h13.39v4.84H708.3V752H703V724.49h20.4v4.66H708.3Z"/><path class="cls-1" d="M733.79,729.14V736h13.43v4.77H733.79v6.46h15.13V752H728.48V724.49h20.44v4.66H733.79Z"/><path class="cls-1" d="M760.45,752h-5.31V724.49h12.61a10.56,10.56,0,0,1,3.89.69,8.64,8.64,0,0,1,3,2,8.92,8.92,0,0,1,2,3,10.05,10.05,0,0,1,.7,3.81,9.46,9.46,0,0,1-1.58,5.44,8.75,8.75,0,0,1-4.2,3.34q3.5,4.57,6.91,9.24h-6.33q-1.67-2.15-3.25-4.32t-3.18-4.43h-5.25V752Zm0-13.41h7.3a4.26,4.26,0,0,0,1.49-.28,4,4,0,0,0,1.38-.86,4.67,4.67,0,0,0,1-1.45,4.87,4.87,0,0,0,.4-2,8.18,8.18,0,0,0-.15-1.43,4.51,4.51,0,0,0-.61-1.58,3.91,3.91,0,0,0-1.28-1.28,4.13,4.13,0,0,0-2.23-.53h-7.3Z"/><path class="cls-1" d="M788.51,729.14V736h13.43v4.77H788.51v6.46h15.13V752H783.2V724.49h20.44v4.66H788.51Z"/><path class="cls-1" d="M833.41,752l-18.24-16.33V752h-5.31V724.52h.57l18.24,16.59V724.52H834V752Z"/><path class="cls-1" d="M866.22,745.21a13.08,13.08,0,0,1-2.24,3,14.8,14.8,0,0,1-2.94,2.29,14.57,14.57,0,0,1-7.38,2,14,14,0,0,1-5.58-1.13,14.49,14.49,0,0,1-7.66-7.58,13.93,13.93,0,0,1,0-11,14.49,14.49,0,0,1,7.66-7.58,14,14,0,0,1,5.58-1.13,14.57,14.57,0,0,1,7.38,2,15.1,15.1,0,0,1,2.94,2.29,13.92,13.92,0,0,1,2.24,2.95l-5,2a10.7,10.7,0,0,0-1.42-1.69,9.82,9.82,0,0,0-1.8-1.39,9.35,9.35,0,0,0-2.09-.94,7.54,7.54,0,0,0-2.28-.34,8.36,8.36,0,0,0-3.55.77,9.35,9.35,0,0,0-2.86,2.05,9.87,9.87,0,0,0-1.93,3,9.16,9.16,0,0,0,0,7.12,9.82,9.82,0,0,0,1.93,3,9.52,9.52,0,0,0,2.86,2.05,8.33,8.33,0,0,0,3.55.77,7.63,7.63,0,0,0,2.28-.34,9.49,9.49,0,0,0,3.89-2.35,11.3,11.3,0,0,0,1.42-1.71Z"/><path class="cls-1" d="M876.38,729.14V736h13.43v4.77H876.38v6.46h15.13V752H871.07V724.49h20.44v4.66H876.38Z"/><path class="cls-1" d="M887.52,699.68,772.14,595.33v0L738.56,567V524.33h3.6l115.38,106v-106h33.58V699.67h-3.6Z"/><polyline class="cls-1" points="772.09 593.96 772.09 699.98 738.51 699.98 738.51 524.64"/><path class="cls-1" d="M846.61,508.11,773,428.24v79.87H739.39V332.53H773v89.23l69.8-89H884l-72.2,90.67L891,508.11Z"/></svg>